<svg xmlns="http://www.w3.org/2000/svg" version="1.1" xmlns:xlink="http://www.w3.org/1999/xlink" xmlns:svgjs="http://svgjs.dev/svgjs" width="1500" height="1500" viewBox="0 0 1500 1500"><rect width="1500" height="1500" fill="#bb84e8"></rect><g transform="matrix(0.6666666666666666,0,0,0.6666666666666666,249.50000000000006,249.50000000000006)"><svg viewBox="0 0 280 280" data-background-color="#bb84e8" preserveAspectRatio="xMidYMid meet" height="1500" width="1500" xmlns="http://www.w3.org/2000/svg" xmlns:xlink="http://www.w3.org/1999/xlink"><g id="tight-bounds" transform="matrix(1,0,0,1,0.13999999999998636,0.13999999999998636)"><svg viewBox="0 0 279.72 279.72" height="279.72" width="279.72"><g><svg viewBox="0 0 279.72 279.72" height="279.72" width="279.72"><g><svg viewBox="0 0 279.72 279.72" height="279.72" width="279.72"><g id="textblocktransform"><svg viewBox="0 0 279.72 279.72" height="279.72" width="279.72" id="textblock"><g><svg viewBox="0 0 279.72 279.72" height="279.72" width="279.72"><g transform="matrix(1,0,0,1,82.35661765119902,73.92936372216631)"><svg viewBox="0 0 115.006764697602 131.8612725556674" height="131.8612725556674" width="115.006764697602"><g><svg xmlns="http://www.w3.org/2000/svg" xmlns:xlink="http://www.w3.org/1999/xlink" version="1.1" x="0" y="0" viewBox="6.391000000000002 0 87.218 100" enable-background="new 0 0 100 100" xml:space="preserve" height="131.8612725556674" width="115.006764697602" class="icon-xg-0" data-fill-palette-color="accent" id="xg-0"><path fill="#454545" d="M77.806 12.728C67.152 12.728 56.381 8.48 50 0c-6.38 8.479-17.154 12.727-27.807 12.727-5.508 0-10.983-1.135-15.802-3.409 0.54 14.316 1.604 28.825 3.999 42.962 1.222 7.749 2.422 16.888 6.666 23.668 3.729 6.528 9.515 11.869 15.722 16.006 4.715 3.137 9.846 5.717 15.187 7.612 0.853 0.303 1.502 0.434 2.1 0.434 1.036 0 1.917-0.394 3.434-0.974 12.28-4.715 25.46-13.388 30.882-25.855 4.878-11.093 5.954-24.273 7.206-36.19 0.968-9.189 1.671-18.426 2.022-27.663C88.79 11.592 83.312 12.728 77.806 12.728zM81.641 35.937l-0.267 2.568c-0.396 3.824-0.797 7.694-1.326 11.496H50v39.658c-0.001 0-0.002 0.001-0.003 0.001-4.081-1.561-8.003-3.585-11.673-6.026-5.664-3.775-10.016-8.147-12.584-12.645l-0.1-0.175-0.107-0.171c-2.877-4.597-4.016-11.91-5.021-18.363l-0.244-1.557-0.009-0.056-0.01-0.056c-0.034-0.201-0.065-0.408-0.099-0.609H50V13.899l0 0c7.62 5.639 17.418 8.829 27.806 8.829 1.693 0 3.378-0.086 5.046-0.257C82.525 26.877 82.121 31.375 81.641 35.937z" data-fill-palette-color="accent"></path></svg></g></svg></g><g><path d="M29.542 111.649l-26.387-8.91 2.902-8.594c0.89-2.635 2.398-4.301 4.525-4.999 2.121-0.699 4.464-0.616 7.031 0.251v0c6.736 2.275 9.268 5.887 7.596 10.836v0l-1.618 4.793 7.349 2.481zM20.827 100.141c0.484-1.434 0.524-2.59 0.12-3.47-0.406-0.873-0.981-1.505-1.724-1.896-0.75-0.393-1.729-0.794-2.936-1.201v0c-1.333-0.45-2.42-0.614-3.261-0.492-0.838 0.116-1.489 0.468-1.953 1.054-0.464 0.586-0.875 1.407-1.231 2.464v0l-1.147 3.396 10.934 3.692z" fill="#454545" data-fill-palette-color="primary"></path><path d="M56.069 64.519l-7.681-2.87-3.692 4.494 5.994 4.923-2.775 3.378-21.52-17.679 5.986-7.286c1.108-1.349 2.367-2.201 3.775-2.556 1.408-0.355 2.845-0.3 4.31 0.165 1.47 0.469 2.872 1.251 4.206 2.347v0c1.005 0.826 1.844 1.583 2.515 2.272 0.666 0.685 1.26 1.525 1.782 2.52 0.522 0.996 0.798 2.124 0.827 3.386v0l9.105 3.459zM44.018 60.379c0.826-1.005 1.175-1.964 1.049-2.876-0.131-0.907-0.487-1.693-1.066-2.357-0.584-0.669-1.338-1.383-2.262-2.141v0c-1.087-0.893-2.04-1.418-2.856-1.574-0.813-0.161-1.544-0.044-2.195 0.35-0.65 0.394-1.337 1.032-2.062 1.914v0l-2.048 2.493 8.887 7.3z" fill="#454545" data-fill-palette-color="primary"></path><path d="M87.758 32.101c1.354 2.308 1.645 4.418 0.875 6.332-0.765 1.911-2.132 3.444-4.102 4.599v0c-1.237 0.725-2.536 1.187-3.897 1.386-1.356 0.195-2.678-0.007-3.968-0.605-1.29-0.598-2.396-1.684-3.32-3.259v0l-6.484-11.053c-1.384-2.359-1.783-4.522-1.198-6.49 0.576-1.97 1.998-3.619 4.266-4.949v0c2.267-1.33 4.399-1.718 6.393-1.165 1.997 0.545 3.654 1.939 4.971 4.184v0zM78.249 24.53c-0.564-0.962-1.108-1.705-1.631-2.23-0.523-0.524-1.141-0.816-1.853-0.875-0.712-0.059-1.549 0.193-2.511 0.757v0c-0.962 0.564-1.594 1.166-1.896 1.805-0.302 0.639-0.356 1.309-0.16 2.01 0.196 0.701 0.582 1.544 1.16 2.529v0l5.375 9.164c0.645 1.099 1.433 1.799 2.364 2.1 0.927 0.295 1.975 0.1 3.143-0.585v0c1.076-0.631 1.725-1.454 1.945-2.469 0.217-1.02 0.01-2.069-0.621-3.145v0z" fill="#454545" data-fill-palette-color="primary"></path><path d="M132.396 28.193l-2.208-14.561-2.4 15.259-3.298 0.5-6.73-13.834 2.202 14.521-4.322 0.655-4.175-27.536 4.322-0.655 8.944 17.275 3.49-19.16 4.332-0.657 4.175 27.536z" fill="#454545" data-fill-palette-color="primary"></path><path d="M162.418 30.147l6.638-27.048 8.81 2.162c2.701 0.663 4.489 2.025 5.364 4.085 0.877 2.054 0.992 4.396 0.347 7.026v0c-1.694 6.905-5.079 9.734-10.152 8.489v0l-4.913-1.205-1.848 7.533zM173.145 20.487c1.47 0.361 2.626 0.303 3.467-0.175 0.835-0.479 1.416-1.105 1.743-1.879 0.328-0.781 0.644-1.79 0.948-3.028v0c0.335-1.367 0.406-2.463 0.213-3.29-0.187-0.825-0.592-1.444-1.216-1.856-0.623-0.413-1.476-0.752-2.559-1.018v0l-3.481-0.855-2.751 11.208z" fill="#454545" data-fill-palette-color="primary"></path><path d="M203.261 46.793l13.189-19.377-4.733-3.221 2.482-3.647 13.219 8.998-2.482 3.647-4.864-3.311-13.189 19.376z" fill="#454545" data-fill-palette-color="primary"></path><path d="M234.269 76.67l4.732-5.764-3.952-5.05-6.69 3.263-3.037-3.882 25.951-12.029 3.805 4.862-17.593 22.709zM247.4 60.134l-8.043 3.665 2.675 3.419z" fill="#454545" data-fill-palette-color="primary"></path><path d="M248.753 103.86l22.039-8.327-0.798-2.338 3.94-1.488 2.417 6.399-26.053 9.843z" fill="#454545" data-fill-palette-color="primary"></path><path d="M10.472 182.871l26.976-9.157 2.983 8.788c0.915 2.697 0.725 4.987-0.57 6.871-1.293 1.89-3.25 3.28-5.872 4.169v0c-6.883 2.336-11.185 0.971-12.904-4.095v0l-1.661-4.893-7.515 2.551zM24.701 186.811c0.497 1.465 1.182 2.428 2.053 2.889 0.872 0.461 1.735 0.62 2.591 0.477 0.854-0.15 1.896-0.433 3.129-0.852v0c1.364-0.463 2.348-1.004 2.951-1.622 0.61-0.621 0.921-1.315 0.933-2.083 0.008-0.76-0.171-1.681-0.538-2.762v0l-1.178-3.47-11.173 3.793z" fill="#454545" data-fill-palette-color="secondary"></path><path d="M72.031 253.25c-1.656 2.185-3.537 3.287-5.643 3.307-2.111 0.016-4.095-0.68-5.952-2.088v0c-1.169-0.886-2.112-1.934-2.828-3.143-0.72-1.204-1.05-2.533-0.989-3.986 0.061-1.453 0.656-2.926 1.787-4.418v0l7.916-10.442c1.688-2.227 3.578-3.452 5.671-3.673 2.088-0.216 4.204 0.488 6.346 2.111v0c2.142 1.624 3.344 3.484 3.603 5.581 0.261 2.106-0.412 4.219-2.02 6.34v0zM75.475 241.305c0.69-0.91 1.178-1.714 1.466-2.412 0.288-0.698 0.322-1.397 0.103-2.097-0.223-0.694-0.788-1.384-1.692-2.069v0c-0.91-0.69-1.725-1.054-2.446-1.092-0.725-0.033-1.378 0.18-1.959 0.639-0.587 0.455-1.233 1.148-1.939 2.079v0l-6.562 8.657c-0.786 1.037-1.141 2.055-1.065 3.054 0.08 0.994 0.673 1.909 1.778 2.747v0c1.016 0.77 2.046 1.059 3.09 0.868 1.054-0.192 1.966-0.796 2.736-1.812v0z" fill="#454545" data-fill-palette-color="secondary"></path><path d="M144.451 279.617l-3.33-14.44-3.828 14.293-5.216-0.106-4.863-28.594 4.918 0.101 2.962 18.296 4.733-18.139 3.176 0.065 3.977 18.317 3.42-18.165 5.127 0.104-6.029 28.371z" fill="#454545" data-fill-palette-color="secondary"></path><path d="M214.121 258.3l-16.152-23.467 11.196-7.706 2.541 3.691-7.514 5.171 4.082 5.931 4.593-3.162 1.389 4.23-3.56 2.45 4.799 6.972 7.448-5.126 2.309 3.355z" fill="#454545" data-fill-palette-color="secondary"></path><path d="M268.598 188.26l-8.381-0.429-2.217 5.516 7.363 2.96-1.668 4.148-26.432-10.627 3.596-8.943c0.669-1.663 1.635-2.884 2.9-3.663 1.265-0.779 2.684-1.168 4.257-1.165 1.579 0.005 3.188 0.337 4.826 0.996v0c1.232 0.495 2.279 0.977 3.142 1.446 0.866 0.463 1.707 1.101 2.525 1.916 0.813 0.806 1.429 1.819 1.847 3.04v0l9.943 0.574zM255.57 187.938c0.495-1.232 0.543-2.275 0.143-3.131-0.409-0.851-0.999-1.511-1.77-1.978-0.775-0.476-1.728-0.942-2.862-1.397v0c-1.337-0.537-2.426-0.754-3.27-0.649-0.847 0.096-1.524 0.436-2.03 1.019-0.515 0.587-0.991 1.423-1.426 2.506v0l-1.23 3.058 10.911 4.387z" fill="#454545" data-fill-palette-color="secondary"></path><path d="M4.122 143.995c0-6.01 4.872-10.882 10.882-10.882 6.01 0 10.882 4.872 10.883 10.882 0 6.01-4.872 10.882-10.883 10.882-6.01 0-10.882-4.872-10.882-10.882z" fill="#454545" data-fill-palette-color="primary"></path><path d="M254.8 143.995c0-6.01 4.872-10.882 10.883-10.882 6.01 0 10.882 4.872 10.882 10.882 0 6.01-4.872 10.882-10.882 10.882-6.01 0-10.882-4.872-10.883-10.882z" fill="#454545" data-fill-palette-color="primary"></path></g></svg></g></svg></g></svg></g><g></g></svg></g><defs></defs></svg><rect width="279.72" height="279.72" fill="none" stroke="none" visibility="hidden"></rect></g></svg></g></svg>